<?xml version="1.0" encoding="UTF-8"?>
<svg id="Layer_2" data-name="Layer 2" xmlns="http://www.w3.org/2000/svg" xmlns:xlink="http://www.w3.org/1999/xlink" viewBox="0 0 1836.98 1853.2">
  <defs>
    <style>
      .cls-1 {
        fill: none;
        stroke: url(#linear-gradient);
        stroke-miterlimit: 10;
        stroke-width: .5px;
      }
    </style>
    <linearGradient id="linear-gradient" x1="1836.98" y1="926.6" x2="0" y2="926.6" gradientUnits="userSpaceOnUse">
      <stop offset="0" stop-color="#2b54ef"/>
      <stop offset="1" stop-color="#01db60"/>
    </linearGradient>
  </defs>
  <g id="Content">
    <path class="cls-1" d="M443.71,1353.31c0,86.98-70.45,157.58-157.59,157.58-9.31,0-18.62-.9-27.49-2.4-38.91-6.76-72.86-27.94-96.29-57.68-5.26-6.76-10.07-13.82-14.12-21.18-28.99-44.92-54.08-92.24-75.11-141.97C24.74,1173.34.25,1051.96.25,926.98s24.49-246.37,72.86-360.69c42.96-101.55,103.05-193.49,178.61-273.86,8.71-11.87,19.23-22.38,30.95-31.4,26.59-20.43,59.63-32.45,95.69-32.45h7.36c1.36.15,2.71.3,4.06.3h1.65c1.65.15,3.31.3,4.96.45h.45l2.4.3c73.61,8.71,131.75,68.5,137.61,143.01v.3h.15c.3,4.21.45,8.41.45,12.62,0,39.21-14.42,75.11-38.15,102.6-2.55,2.4-4.96,4.81-7.36,7.21-2.55,2.55-5.11,5.11-7.51,7.66-115.37,120.78-177.26,284.52-169.45,452.62,4.96,107.11,37.41,209.26,94.04,298.34,5.86,7.21,11.12,15.02,15.63,23.28,11.41,21.03,18.33,45.07,19.08,70.45v5.56ZM1285.26,1500.67h0c-21.49-11.11-45.97-17.27-71.81-17.27-16.82,0-33.05,2.71-48.22,7.51-7.06,2.25-13.97,4.96-20.58,8.26-68.65,26.14-142.26,39.81-217.98,39.81-95.39,0-187.48-21.63-270.55-62.64-5.1-3-10.36-5.71-15.62-8.11-19.38-8.56-41.01-13.37-63.55-13.37h-4.36c-59.04,0-110.41,32.6-137.3,80.67-12.16,21.78-19.23,46.72-19.83,73.16v3.15c0,51.23,24.63,96.75,62.64,125.44,5.86,4.5,12.17,8.56,18.78,12.17,8.86,4.96,18.33,9.01,28.24,12.17,13.52,6.45,27.2,12.62,41.01,18.47,114.32,48.37,235.7,72.86,360.69,72.86,118.23,0,233.15-21.93,341.91-65.2l2.71-1.05c3.75-1.5,7.51-3.31,11.12-5.11,4.21-2.1,8.41-4.5,12.47-6.91,1.05-.6,2.11-1.2,3.01-1.96,41.61-26.59,69.85-72.26,72.4-124.68,0-2.55.15-5.11.15-7.66,0-60.84-34.7-113.72-85.32-139.71ZM1778.29,974l-.15.3c-26.89-21.78-61.29-34.85-98.7-34.85-47.62,0-90.28,21.18-119.12,54.68-5.86,6.91-11.27,14.27-15.77,21.93-8.86,13.52-15.63,28.39-19.83,44.46-.45,1.5-.9,3.15-1.2,4.66-.45,2.11-.9,4.06-1.35,6.16-20.13,83.22-57.54,161.19-110.42,229.39-3.46,4.35-6.91,8.71-10.36,13.07-1.35,1.8-2.55,3.75-3.75,5.56-3.46,5.26-6.46,10.66-9.32,16.37-12.17,21.78-19.23,46.72-19.83,73.16v3.15c0,59.34,32.9,110.87,81.27,137.61,22.53,12.31,48.22,19.37,75.71,19.37,41.16,0,78.57-15.77,106.66-41.76,10.96-10.06,20.43-21.78,28.09-34.55,48.82-62.94,89.08-131.89,120.33-205.8,18.02-42.66,32.75-86.23,44.17-130.69,6.61-16.07,10.66-33.5,11.72-51.68.15-2.71.3-5.56.3-8.26,0-49.42-22.84-93.44-58.44-122.28ZM655.07,331.79l-.15-.3c18.02,7.21,37.86,11.27,58.44,11.27h5.41c11.27,0,22.24-1.2,32.75-3.45,6.45-1.36,12.77-3.15,19.08-5.26,50.32-13.22,102.75-19.98,156.23-19.98,163.59,0,317.42,63.7,433.1,179.37,71.05,71.05,122.58,156.53,151.73,249.82.9,3.76,2.1,7.36,3.3,10.97,13.67,40.41,43.57,73.46,81.87,91.33,18.93,9.01,40.11,14.27,62.35,14.87h4.35c11.27,0,22.24-1.2,32.75-3.45,6.45-1.36,12.77-3.15,19.08-5.26,6.46-2.25,12.62-4.81,18.62-7.81,12.17-6.16,23.44-13.82,33.65-22.69,5.26-4.66,10.21-9.61,14.87-14.87,14.42-16.53,25.39-36.2,31.69-57.84,4.66-15.02,7.22-30.8,7.22-47.32,0-8.11-.6-16.07-1.8-23.74-2.4-15.32-6.91-30.04-13.37-43.56-7.66-22.84-16.07-45.52-25.54-67.9-46.72-110.41-113.42-209.41-198.45-294.44-85.03-85.03-184.17-151.88-294.44-198.45C1173.49,24.74,1052.11.25,927.13.25c-80.52,0-159.39,10.21-236,30.34-14.57,2.11-28.55,6.16-41.47,12.02-54.83,24.49-93.14,79.47-93.14,143.47,0,8.71.75,17.42,2.11,25.68,9.01,54.83,46.42,100.05,96.44,120.03Z"/>
  </g>
</svg>