<?xml version="1.0" encoding="UTF-8"?>
<svg id="Layer_2" data-name="Layer 2" xmlns="http://www.w3.org/2000/svg" viewBox="0 0 26 22">
  <defs>
    <style>
      .cls-1 {
        fill: #01db60;
      }

      .cls-2 {
        fill: #014538;
      }
    </style>
  </defs>
  <g id="Logos">
    <g>
      <path class="cls-2" d="M24,1H2c-.27,0-.52.11-.71.29-.19.19-.29.44-.29.71v18c0,.27.11.52.29.71.19.19.44.29.71.29h22c.27,0,.52-.11.71-.29s.29-.44.29-.71V2c0-.27-.11-.52-.29-.71-.19-.19-.44-.29-.71-.29ZM9,13c-.59,0-1.17-.18-1.67-.51-.49-.33-.88-.8-1.1-1.35-.23-.55-.29-1.15-.17-1.73.12-.58.4-1.12.82-1.54.42-.42.95-.71,1.54-.82.58-.12,1.19-.06,1.73.17.55.23,1.02.61,1.35,1.1.33.49.51,1.07.51,1.67,0,.8-.32,1.56-.88,2.12-.56.56-1.33.88-2.12.88Z"/>
      <path class="cls-1" d="M22,9c0,.27-.11.52-.29.71s-.44.29-.71.29h-5c-.27,0-.52-.11-.71-.29s-.29-.44-.29-.71.11-.52.29-.71.44-.29.71-.29h5c.27,0,.52.11.71.29s.29.44.29.71ZM21,12h-5c-.27,0-.52.11-.71.29s-.29.44-.29.71.11.52.29.71.44.29.71.29h5c.27,0,.52-.11.71-.29s.29-.44.29-.71-.11-.52-.29-.71-.44-.29-.71-.29ZM26,2v18c0,.53-.21,1.04-.59,1.41-.38.38-.88.59-1.41.59H2c-.53,0-1.04-.21-1.41-.59-.38-.38-.59-.88-.59-1.41V2C0,1.47.21.96.59.59c.38-.38.88-.59,1.41-.59h22c.53,0,1.04.21,1.41.59.38.38.59.88.59,1.41ZM24,20V2H2v18h22ZM13.97,15.75c.07.26.03.53-.11.76-.13.23-.35.39-.61.46-.26.07-.53.03-.76-.11-.23-.13-.39-.35-.46-.61-.33-1.28-1.63-2.25-3.03-2.25s-2.7.97-3.03,2.25c-.07.26-.23.48-.46.61-.23.13-.5.17-.76.11-.26-.07-.48-.23-.61-.46-.13-.23-.17-.5-.11-.76.32-1.21,1.09-2.25,2.15-2.92-.56-.56-.95-1.27-1.1-2.05s-.08-1.58.22-2.31c.3-.73.81-1.36,1.47-1.8.66-.44,1.43-.68,2.22-.68s1.57.24,2.22.68c.66.44,1.17,1.07,1.47,1.8.3.73.38,1.54.22,2.31-.16.78-.54,1.49-1.1,2.05,1.06.67,1.83,1.71,2.15,2.92h0ZM9,12c.4,0,.78-.12,1.11-.34.33-.22.59-.53.74-.9.15-.37.19-.77.11-1.16-.08-.39-.27-.74-.55-1.02s-.64-.47-1.02-.55c-.39-.08-.79-.04-1.16.11-.37.15-.68.41-.9.74-.22.33-.34.72-.34,1.11,0,.53.21,1.04.59,1.41.38.38.88.59,1.41.59Z"/>
    </g>
  </g>
</svg>