<?xml version="1.0" encoding="UTF-8"?>
<svg id="Layer_2" data-name="Layer 2" xmlns="http://www.w3.org/2000/svg" viewBox="0 0 26.68 25.93">
  <defs>
    <style>
      .cls-1 {
        fill: #01db60;
      }

      .cls-2 {
        fill: #014538;
      }
    </style>
  </defs>
  <g id="Logos">
    <g>
      <path class="cls-2" d="M25.68,13c0,2.37-.7,4.69-2.02,6.67-1.32,1.97-3.19,3.51-5.39,4.42-2.19.91-4.61,1.15-6.93.68-2.33-.46-4.47-1.61-6.14-3.28-1.68-1.68-2.82-3.82-3.28-6.14-.46-2.33-.23-4.74.68-6.93.91-2.19,2.45-4.07,4.42-5.39,1.97-1.32,4.29-2.02,6.67-2.02,3.18,0,6.23,1.26,8.49,3.51,2.25,2.25,3.51,5.3,3.51,8.49Z"/>
      <path class="cls-1" d="M6.68,13c0,2.62-.6,5.21-1.77,7.56-.06.12-.14.23-.23.32-.1.09-.21.16-.34.2-.13.04-.26.06-.39.06-.13,0-.26-.04-.38-.1-.12-.06-.23-.14-.31-.24-.09-.1-.15-.22-.19-.35-.04-.13-.06-.26-.04-.4.01-.13.05-.26.11-.38,1.03-2.07,1.57-4.35,1.56-6.67,0-1.35.3-2.68.88-3.9.58-1.22,1.44-2.29,2.49-3.13.21-.17.47-.24.73-.21.26.03.5.16.67.37.17.21.24.47.21.74-.03.26-.16.5-.37.67-.82.65-1.48,1.49-1.94,2.43-.45.95-.69,1.98-.69,3.03ZM13.68,12c-.27,0-.52.11-.71.29-.19.19-.29.44-.29.71,0,3.9-.99,7.73-2.88,11.14-.13.23-.16.51-.09.76.07.25.24.47.48.6.23.13.51.16.76.09.26-.07.47-.24.6-.48,2.05-3.71,3.12-7.87,3.12-12.11,0-.27-.11-.52-.29-.71-.19-.19-.44-.29-.71-.29ZM13.68,8c-1.33,0-2.6.53-3.54,1.46-.94.94-1.46,2.21-1.46,3.54,0,.27.11.52.29.71.19.19.44.29.71.29s.52-.11.71-.29c.19-.19.29-.44.29-.71,0-.8.32-1.56.88-2.12.56-.56,1.33-.88,2.12-.88s1.56.32,2.12.88c.56.56.88,1.33.88,2.12.01,3.98-.87,7.9-2.56,11.5-.06.12-.09.25-.09.38,0,.13.01.26.06.39.04.12.11.24.2.34.09.1.2.18.31.23.12.06.25.09.38.09.13,0,.26-.01.39-.06.12-.04.24-.11.34-.2.1-.09.18-.2.23-.31,1.82-3.86,2.76-8.08,2.75-12.35,0-1.33-.53-2.6-1.46-3.54-.94-.94-2.21-1.46-3.54-1.46ZM13.68,0c-3.45,0-6.75,1.37-9.19,3.81C2.06,6.25.69,9.55.68,13c0,1.25-.21,2.49-.62,3.67-.09.25-.07.53.04.76.11.24.32.42.57.51.25.09.53.07.76-.04.24-.11.42-.32.51-.57.49-1.39.74-2.86.74-4.33,0-2.92,1.16-5.72,3.22-7.78,2.06-2.06,4.86-3.22,7.78-3.22s5.72,1.16,7.78,3.22c2.06,2.06,3.22,4.86,3.22,7.78,0,2.28-.22,4.56-.66,6.81-.03.13-.03.26,0,.39.03.13.08.25.15.36.07.11.17.2.28.28.11.07.23.12.36.15.06.01.13.02.19.02.23,0,.46-.08.63-.23.18-.15.3-.35.35-.58.47-2.37.7-4.78.7-7.19,0-3.45-1.37-6.75-3.81-9.19C20.43,1.37,17.13,0,13.68,0ZM9.48,16.02c-.26-.05-.53,0-.75.15-.22.15-.37.37-.43.63-.41,2-1.13,3.92-2.15,5.68-.13.23-.17.5-.1.76.07.26.24.47.47.61.23.13.5.17.76.1.26-.07.47-.24.61-.47,1.13-1.95,1.93-4.07,2.38-6.28.03-.13.03-.26,0-.39-.03-.13-.08-.25-.15-.36-.07-.11-.17-.2-.27-.28-.11-.07-.23-.12-.36-.15ZM13.68,4c-.38,0-.75.02-1.12.07-.26.04-.49.18-.65.39-.16.21-.23.47-.2.73.03.26.17.5.37.66.2.16.46.24.72.21.99-.12,1.99-.03,2.93.26.95.29,1.82.78,2.57,1.44.74.66,1.34,1.46,1.75,2.37.41.9.62,1.89.62,2.88,0,1.3-.08,2.59-.24,3.88-.02.13,0,.26.02.39.03.13.09.25.17.35.08.1.18.19.3.26.11.07.24.11.37.12.04,0,.08,0,.12,0,.24,0,.48-.09.66-.25.18-.16.3-.38.33-.62.17-1.37.25-2.75.25-4.12,0-2.39-.95-4.67-2.63-6.36-1.69-1.69-3.97-2.64-6.36-2.65ZM20.92,20.03c-.13-.03-.26-.04-.39-.02-.13.02-.26.06-.37.13-.11.07-.21.16-.29.26-.08.11-.14.22-.17.35-.18.71-.39,1.42-.62,2.12-.08.25-.07.52.05.76.12.24.32.42.57.5.1.03.21.05.32.05.21,0,.41-.07.58-.19.17-.12.3-.3.36-.49.25-.74.47-1.5.67-2.26.03-.13.04-.26.02-.39-.02-.13-.06-.26-.13-.37-.07-.11-.15-.21-.26-.29-.1-.08-.22-.14-.35-.17h0Z"/>
    </g>
  </g>
</svg>