<?xml version="1.0" encoding="UTF-8"?>
<svg id="Layer_2" data-name="Layer 2" xmlns="http://www.w3.org/2000/svg" viewBox="0 0 26 26">
  <defs>
    <style>
      .cls-1 {
        fill: #01db60;
      }

      .cls-2 {
        fill: #014538;
      }
    </style>
  </defs>
  <g id="Logos">
    <g>
      <path class="cls-2" d="M25,13c0,2.37-.7,4.69-2.02,6.67-1.32,1.97-3.19,3.51-5.39,4.42-2.19.91-4.61,1.15-6.93.68-2.33-.46-4.47-1.61-6.14-3.28-1.68-1.68-2.82-3.82-3.28-6.14-.46-2.33-.23-4.74.68-6.93.91-2.19,2.45-4.07,4.42-5.39,1.97-1.32,4.29-2.02,6.67-2.02,3.18,0,6.23,1.26,8.49,3.51,2.25,2.25,3.51,5.3,3.51,8.49Z"/>
      <path class="cls-1" d="M13,0c-2.57,0-5.08.76-7.22,2.19C3.64,3.62,1.97,5.65.99,8.03,0,10.4-.25,13.01.25,15.54c.5,2.52,1.74,4.84,3.56,6.66,1.82,1.82,4.13,3.06,6.66,3.56,2.52.5,5.14.24,7.51-.74,2.38-.98,4.41-2.65,5.83-4.79,1.43-2.14,2.19-4.65,2.19-7.22,0-3.45-1.37-6.75-3.81-9.19C19.75,1.37,16.45,0,13,0ZM13,24c-2.18,0-4.3-.65-6.11-1.85-1.81-1.21-3.22-2.93-4.05-4.94s-1.05-4.22-.63-6.36c.42-2.13,1.47-4.09,3.01-5.63,1.54-1.54,3.5-2.59,5.63-3.01,2.13-.42,4.35-.21,6.36.63,2.01.83,3.73,2.24,4.94,4.05,1.21,1.81,1.85,3.94,1.85,6.11,0,2.92-1.16,5.71-3.23,7.77s-4.86,3.22-7.77,3.23ZM18,15.5c0,.93-.37,1.82-1.03,2.47-.66.66-1.55,1.03-2.47,1.03h-.5v1c0,.27-.11.52-.29.71s-.44.29-.71.29-.52-.11-.71-.29-.29-.44-.29-.71v-1h-2c-.27,0-.52-.11-.71-.29s-.29-.44-.29-.71.11-.52.29-.71.44-.29.71-.29h4.5c.4,0,.78-.16,1.06-.44s.44-.66.44-1.06-.16-.78-.44-1.06-.66-.44-1.06-.44h-3c-.93,0-1.82-.37-2.47-1.03-.66-.66-1.03-1.55-1.03-2.47s.37-1.82,1.03-2.47c.66-.66,1.55-1.03,2.47-1.03h.5v-1c0-.27.11-.52.29-.71.19-.19.44-.29.71-.29s.52.11.71.29c.19.19.29.44.29.71v1h2c.27,0,.52.11.71.29s.29.44.29.71-.11.52-.29.71-.44.29-.71.29h-4.5c-.4,0-.78.16-1.06.44-.28.28-.44.66-.44,1.06s.16.78.44,1.06c.28.28.66.44,1.06.44h3c.93,0,1.82.37,2.47,1.03.66.66,1.03,1.55,1.03,2.47Z"/>
    </g>
  </g>
</svg>