<?xml version="1.0" encoding="UTF-8"?>
<svg id="Layer_2" data-name="Layer 2" xmlns="http://www.w3.org/2000/svg" viewBox="0 0 27.48 27.46">
  <defs>
    <style>
      .cls-1 {
        fill: #01db60;
      }

      .cls-2 {
        fill: #014538;
      }
    </style>
  </defs>
  <g id="Logos">
    <g>
      <circle class="cls-2" cx="12.95" cy="14.52" r="7.99"/>
      <path class="cls-1" d="M17.02,14.51c0,2.25-1.82,4.08-4.07,4.08s-4.08-1.83-4.08-4.08,1.83-4.07,4.08-4.07h.07l-1.98,2.01c-1.05,1.07-1.05,2.81.01,3.87.52.52,1.21.8,1.94.8s1.42-.28,1.94-.8l2.08-2.09c.01.09.01.19.01.28Z"/>
      <path class="cls-1" d="M20.94,14.51c0,4.41-3.58,8-7.99,8s-8-3.59-8-8,3.59-7.99,8-7.99c1.13,0,2.24.24,3.25.7l-1.25,1.27c-.64-.21-1.32-.32-2-.32-3.5,0-6.35,2.84-6.35,6.34s2.85,6.35,6.35,6.35,6.34-2.85,6.34-6.35c0-.74-.13-1.48-.39-2.17l1.26-1.26c.52,1.07.78,2.24.78,3.43Z"/>
      <path class="cls-1" d="M27.48,3.6h-3.86V0l-3.6,3.6-.3,2.9-7.25,7.36c-.29.29-.28.76,0,1.04h0c.29.29.76.29,1.05,0l7.45-7.45h2.65l3.86-3.85Z"/>
      <path class="cls-1" d="M25.9,14.51c0,7.14-5.81,12.95-12.95,12.95S0,21.65,0,14.51,5.81,1.57,12.95,1.57c1.78,0,3.55.37,5.18,1.09l-.03.03-.17,1.69c-1.54-.77-3.25-1.16-4.98-1.16C6.72,3.22,1.65,8.28,1.65,14.51s5.07,11.3,11.3,11.3,11.3-5.07,11.3-11.3c0-1.76-.41-3.49-1.21-5.06l1.7-.29c.76,1.68,1.16,3.51,1.16,5.35Z"/>
    </g>
  </g>
</svg>