<?xml version="1.0" encoding="UTF-8"?>
<svg id="Layer_2" data-name="Layer 2" xmlns="http://www.w3.org/2000/svg" xmlns:xlink="http://www.w3.org/1999/xlink" viewBox="0 0 1078.33 157.55">
  <defs>
    <style>
      .cls-1 {
        fill: #fff;
      }

      .cls-2 {
        fill: url(#linear-gradient);
      }
    </style>
    <linearGradient id="linear-gradient" x1="447.94" y1="78.61" x2="292.09" y2="78.61" gradientUnits="userSpaceOnUse">
      <stop offset="0" stop-color="#2b54ef"/>
      <stop offset="1" stop-color="#01db60"/>
    </linearGradient>
  </defs>
  <g id="Logos">
    <g>
      <g>
        <path class="cls-1" d="M597.18,5.05v150.03h-24.82c-.13-.18-.26-.37-.39-.54-23.89-33.31-47.94-66.79-71.97-100.29-.53.28-1.07.53-1.61.79v100.68h-25.64V4.34h23.77c24.52,34.64,48.98,69.21,73.47,103.78.43-.19.87-.38,1.3-.57V5.06h25.91Z"/>
        <path class="cls-1" d="M253.24,105.77c7.2,4.81,14.17,9.46,21.12,14.09-8.5,23.4-47.12,41.63-78.33,36.95-34.69-5.19-62.45-36.55-64.79-71.84-2.57-38.74,24.32-71.87,56.24-79.66,41.24-10.08,69.91,8.88,88.11,34.72-7.54,4.48-15.06,8.97-22.58,13.44-19.87-32.8-61.25-30.35-79.96-11.12-24.67,25.34-18.09,60.47,3.07,77.97,22.73,18.82,59.45,15.45,77.12-14.57h0Z"/>
        <path class="cls-1" d="M829.14,155.18h-26.44V29.13h-44.46V5.11h114.81v24.11h-43.92v125.96Z"/>
        <g>
          <path class="cls-1" d="M993.05,74.24c-16.47-23.12-32.68-45.87-49.35-69.26h31.97c11.46,16.5,23.07,33.21,35.24,50.73,11.88-17.07,23.48-33.73,35.32-50.74h32.1c-16.36,23.46-32.29,46.35-48.28,69.27h-37,0Z"/>
          <path class="cls-1" d="M944.91,155.48c5.91-8.63,11.25-16.46,16.61-24.27,9.43-13.75,18.97-27.43,28.26-41.27,1.66-2.48,3.56-3.77,6.37-3.77,10.34,0,20.69,0,31.03.23,1.39.04,3.19,1.13,4.02,2.29,15.18,21.34,30.24,42.76,45.3,64.17.45.64.77,1.39,1.34,2.41h-31.52c-11.6-16.5-23.2-33.01-35.13-49.98-11.57,17.2-22.68,33.72-33.77,50.19h-32.52Z"/>
        </g>
        <path class="cls-1" d="M922.27,155.1h-25.47V5.15h25.47v149.95Z"/>
        <g>
          <path class="cls-1" d="M624.65,154.99v-23.89h107.48v23.89h-107.48Z"/>
          <path class="cls-1" d="M732.86,5.15v23.55h-108.16V5.15h108.16Z"/>
          <path class="cls-1" d="M624.35,91.04v-23.58h91.75v23.58h-91.75Z"/>
        </g>
        <g>
          <path class="cls-1" d="M0,155v-24.02h108.44v24.02H0Z"/>
          <path class="cls-1" d="M108.32,5.01v23.92H0V5.01h108.32Z"/>
          <path class="cls-1" d="M91.12,67.63v23.73H.33v-23.73h90.8Z"/>
        </g>
      </g>
      <path class="cls-2" d="M329.72,114.82c0,7.38-5.98,13.37-13.37,13.37-.79,0-1.58-.08-2.33-.2-3.3-.57-6.18-2.37-8.17-4.9-.45-.57-.85-1.17-1.2-1.8-2.46-3.81-4.59-7.83-6.37-12.05-4.11-9.7-6.18-20-6.18-30.61s2.08-20.91,6.18-30.61c3.65-8.62,8.75-16.42,15.16-23.24.74-1.01,1.63-1.9,2.63-2.66,2.26-1.73,5.06-2.75,8.12-2.75h.62c.12.01.23.03.34.03h.14l.42.04h.04l.2.03c6.25.74,11.18,5.81,11.68,12.14v.03h.01c.03.36.04.71.04,1.07,0,3.33-1.22,6.37-3.24,8.71-.22.2-.42.41-.62.61-.22.22-.43.43-.64.65-9.79,10.25-15.04,24.14-14.38,38.41.42,9.09,3.17,17.76,7.98,25.32.5.61.94,1.27,1.33,1.98.97,1.78,1.56,3.82,1.62,5.98v.47ZM401.14,127.33h0c-1.82-.94-3.9-1.47-6.09-1.47-1.43,0-2.8.23-4.09.64-.6.19-1.19.42-1.75.7-5.83,2.22-12.07,3.38-18.5,3.38-8.1,0-15.91-1.84-22.96-5.32-.43-.25-.88-.48-1.33-.69-1.64-.73-3.48-1.13-5.39-1.13h-.37c-5.01,0-9.37,2.77-11.65,6.85-1.03,1.85-1.63,3.96-1.68,6.21v.27c0,4.35,2.09,8.21,5.32,10.64.5.38,1.03.73,1.59,1.03.75.42,1.56.76,2.4,1.03,1.15.55,2.31,1.07,3.48,1.57,9.7,4.11,20,6.18,30.61,6.18,10.03,0,19.79-1.86,29.01-5.53l.23-.09c.32-.13.64-.28.94-.43.36-.18.71-.38,1.06-.59.09-.05.18-.1.26-.17,3.53-2.26,5.93-6.13,6.14-10.58,0-.22.01-.43.01-.65,0-5.16-2.94-9.65-7.24-11.86ZM442.98,82.63v.03c-2.29-1.85-5.21-2.96-8.39-2.96-4.04,0-7.66,1.8-10.11,4.64-.5.59-.96,1.21-1.34,1.86-.75,1.15-1.33,2.41-1.68,3.77-.04.13-.08.27-.1.4-.04.18-.08.34-.11.52-1.71,7.06-4.88,13.68-9.37,19.47-.29.37-.59.74-.88,1.11-.11.15-.22.32-.32.47-.29.45-.55.9-.79,1.39-1.03,1.85-1.63,3.96-1.68,6.21v.27c0,5.04,2.79,9.41,6.9,11.68,1.91,1.05,4.09,1.64,6.42,1.64,3.49,0,6.67-1.34,9.05-3.54.93-.85,1.73-1.85,2.38-2.93,4.14-5.34,7.56-11.19,10.21-17.46,1.53-3.62,2.78-7.32,3.75-11.09.56-1.36.9-2.84.99-4.39.01-.23.03-.47.03-.7,0-4.19-1.94-7.93-4.96-10.38ZM347.66,28.14v-.03c1.52.61,3.2.96,4.95.96h.46c.96,0,1.89-.1,2.78-.29.55-.12,1.08-.27,1.62-.45,4.27-1.12,8.72-1.7,13.26-1.7,13.88,0,26.94,5.41,36.75,15.22,6.03,6.03,10.4,13.28,12.88,21.2.08.32.18.62.28.93,1.16,3.43,3.7,6.23,6.95,7.75,1.61.76,3.4,1.21,5.29,1.26h.37c.96,0,1.89-.1,2.78-.29.55-.12,1.08-.27,1.62-.45.55-.19,1.07-.41,1.58-.66,1.03-.52,1.99-1.17,2.86-1.93.45-.4.87-.82,1.26-1.26,1.22-1.4,2.15-3.07,2.69-4.91.4-1.27.61-2.61.61-4.02,0-.69-.05-1.36-.15-2.01-.2-1.3-.59-2.55-1.13-3.7-.65-1.94-1.36-3.86-2.17-5.76-3.96-9.37-9.63-17.77-16.84-24.99s-15.63-12.89-24.99-16.84c-9.7-4.1-20-6.18-30.61-6.18-6.83,0-13.53.87-20.03,2.58-1.24.18-2.42.52-3.52,1.02-4.65,2.08-7.9,6.74-7.9,12.17,0,.74.06,1.48.18,2.18.76,4.65,3.94,8.49,8.18,10.19Z"/>
    </g>
  </g>
</svg>