<?xml version="1.0" encoding="UTF-8"?>
<svg id="Layer_2" data-name="Layer 2" xmlns="http://www.w3.org/2000/svg" viewBox="0 0 393.51 396.99">
  <defs>
    <style>
      .cls-1 {
        fill: #f9c416;
      }
    </style>
  </defs>
  <g id="Logos">
    <path class="cls-1" d="M95.02,289.93c0,18.64-15.1,33.77-33.77,33.77-2,0-3.99-.19-5.89-.52-8.34-1.45-15.61-5.99-20.63-12.36-1.13-1.45-2.16-2.96-3.03-4.54-6.21-9.62-11.59-19.77-16.09-30.42C5.25,251.37,0,225.36,0,198.58s5.25-52.79,15.61-77.29c9.21-21.76,22.08-41.46,38.27-58.68,1.87-2.54,4.12-4.8,6.63-6.73,5.7-4.38,12.78-6.95,20.5-6.95h1.58c.29.03.58.06.87.06h.35c.35.03.71.06,1.06.1h.1l.52.06c15.77,1.87,28.23,14.68,29.49,30.64v.06h.03c.06.9.1,1.8.1,2.7,0,8.4-3.09,16.09-8.18,21.99-.55.52-1.06,1.03-1.58,1.55-.55.55-1.09,1.09-1.61,1.64-24.72,25.88-37.98,60.97-36.31,96.99,1.06,22.95,8.02,44.84,20.15,63.93,1.26,1.55,2.38,3.22,3.35,4.99,2.45,4.51,3.93,9.66,4.09,15.1v1.19ZM275.35,321.51h0c-4.6-2.38-9.85-3.7-15.39-3.7-3.61,0-7.08.58-10.33,1.61-1.51.48-2.99,1.06-4.41,1.77-14.71,5.6-30.48,8.53-46.71,8.53-20.44,0-40.17-4.64-57.97-13.42-1.09-.64-2.22-1.22-3.35-1.74-4.15-1.83-8.79-2.86-13.62-2.86h-.93c-12.65,0-23.66,6.98-29.42,17.29-2.61,4.67-4.12,10.01-4.25,15.68v.68c0,10.98,5.28,20.73,13.42,26.88,1.26.97,2.61,1.83,4.02,2.61,1.9,1.06,3.93,1.93,6.05,2.61,2.9,1.38,5.83,2.7,8.79,3.96,24.5,10.37,50.51,15.61,77.29,15.61,25.33,0,49.96-4.7,73.26-13.97l.58-.23c.8-.32,1.61-.71,2.38-1.09.9-.45,1.8-.97,2.67-1.48.23-.13.45-.26.64-.42,8.92-5.7,14.97-15.48,15.51-26.72,0-.55.03-1.09.03-1.64,0-13.04-7.43-24.37-18.28-29.94ZM380.99,208.65l-.03.06c-5.76-4.67-13.13-7.47-21.15-7.47-10.2,0-19.35,4.54-25.53,11.72-1.26,1.48-2.41,3.06-3.38,4.7-1.9,2.9-3.35,6.08-4.25,9.53-.1.32-.19.68-.26,1-.1.45-.19.87-.29,1.32-4.31,17.83-12.33,34.54-23.66,49.15-.74.93-1.48,1.87-2.22,2.8-.29.39-.55.8-.8,1.19-.74,1.13-1.38,2.28-2,3.51-2.61,4.67-4.12,10.01-4.25,15.68v.68c0,12.71,7.05,23.76,17.41,29.49,4.83,2.64,10.33,4.15,16.22,4.15,8.82,0,16.84-3.38,22.86-8.95,2.35-2.16,4.38-4.67,6.02-7.4,10.46-13.49,19.09-28.26,25.78-44.1,3.86-9.14,7.02-18.48,9.46-28,1.42-3.44,2.28-7.18,2.51-11.07.03-.58.06-1.19.06-1.77,0-10.59-4.89-20.02-12.52-26.2ZM140.31,71.04l-.03-.06c3.86,1.55,8.11,2.41,12.52,2.41h1.16c2.41,0,4.76-.26,7.02-.74,1.38-.29,2.74-.68,4.09-1.13,10.78-2.83,22.02-4.28,33.48-4.28,35.05,0,68.02,13.65,92.8,38.43,15.22,15.22,26.27,33.54,32.51,53.53.19.81.45,1.58.71,2.35,2.93,8.66,9.34,15.74,17.54,19.57,4.06,1.93,8.59,3.06,13.36,3.19h.93c2.41,0,4.76-.26,7.02-.74,1.38-.29,2.74-.68,4.09-1.13,1.38-.48,2.7-1.03,3.99-1.67,2.61-1.32,5.02-2.96,7.21-4.86,1.13-1,2.19-2.06,3.19-3.19,3.09-3.54,5.44-7.76,6.79-12.39,1-3.22,1.55-6.6,1.55-10.14,0-1.74-.13-3.44-.39-5.09-.52-3.28-1.48-6.44-2.87-9.33-1.64-4.89-3.44-9.75-5.47-14.55-10.01-23.66-24.3-44.87-42.52-63.09-18.22-18.22-39.46-32.54-63.09-42.52C251.4,5.25,225.39,0,198.61,0c-17.25,0-34.15,2.19-50.57,6.5-3.12.45-6.12,1.32-8.88,2.58-11.75,5.25-19.96,17.03-19.96,30.74,0,1.87.16,3.73.45,5.5,1.93,11.75,9.95,21.44,20.66,25.72Z"/>
  </g>
</svg>