<?xml version="1.0" encoding="UTF-8"?>
<svg id="Layer_2" data-name="Layer 2" xmlns="http://www.w3.org/2000/svg" xmlns:xlink="http://www.w3.org/1999/xlink" viewBox="0 0 308.59 204.06">
  <defs>
    <style>
      .cls-1 {
        fill: url(#linear-gradient);
      }
    </style>
    <linearGradient id="linear-gradient" x1="307.24" y1="53.32" x2="201.52" y2="53.32" gradientUnits="userSpaceOnUse">
      <stop offset="0" stop-color="#2b54ef"/>
      <stop offset="1" stop-color="#01db60"/>
    </linearGradient>
  </defs>
  <g id="Logos">
    <g>
      <path class="cls-1" d="M227.05,77.89c0,5.01-4.06,9.07-9.07,9.07-.54,0-1.07-.05-1.58-.14-2.24-.39-4.19-1.61-5.54-3.32-.3-.39-.58-.8-.81-1.22-1.67-2.59-3.11-5.31-4.32-8.17-2.78-6.58-4.19-13.57-4.19-20.76s1.41-14.18,4.19-20.76c2.47-5.85,5.93-11.14,10.28-15.76.5-.68,1.11-1.29,1.78-1.81,1.53-1.18,3.43-1.87,5.51-1.87h.42c.08,0,.16.02.23.02h.1l.29.03h.03l.14.02c4.24.5,7.58,3.94,7.92,8.23v.02h0c.02.24.03.48.03.73,0,2.26-.83,4.32-2.2,5.91-.15.14-.29.28-.42.42-.15.15-.29.29-.43.44-6.64,6.95-10.2,16.38-9.75,26.05.29,6.17,2.15,12.05,5.41,17.17.34.42.64.86.9,1.34.66,1.21,1.05,2.59,1.1,4.06v.32ZM275.49,86.37h0c-1.24-.64-2.65-.99-4.13-.99-.97,0-1.9.16-2.78.43-.41.13-.8.29-1.18.48-3.95,1.5-8.19,2.29-12.55,2.29-5.49,0-10.79-1.25-15.57-3.61-.29-.17-.6-.33-.9-.47-1.12-.49-2.36-.77-3.66-.77h-.25c-3.4,0-6.36,1.88-7.9,4.64-.7,1.25-1.11,2.69-1.14,4.21v.18c0,2.95,1.42,5.57,3.61,7.22.34.26.7.49,1.08.7.51.29,1.05.52,1.63.7.78.37,1.57.73,2.36,1.06,6.58,2.78,13.57,4.19,20.76,4.19,6.81,0,13.42-1.26,19.68-3.75l.16-.06c.22-.09.43-.19.64-.29.24-.12.48-.26.72-.4.06-.03.12-.07.17-.11,2.4-1.53,4.02-4.16,4.17-7.18,0-.15,0-.29,0-.44,0-3.5-2-6.55-4.91-8.04ZM303.87,56.05v.02c-1.56-1.25-3.54-2.01-5.69-2.01-2.74,0-5.2,1.22-6.86,3.15-.34.4-.65.82-.91,1.26-.51.78-.9,1.63-1.14,2.56-.03.09-.05.18-.07.27-.03.12-.05.23-.08.35-1.16,4.79-3.31,9.28-6.36,13.2-.2.25-.4.5-.6.75-.08.1-.15.22-.22.32-.2.3-.37.61-.54.94-.7,1.25-1.11,2.69-1.14,4.21v.18c0,3.42,1.89,6.38,4.68,7.92,1.3.71,2.78,1.12,4.36,1.12,2.37,0,4.52-.91,6.14-2.4.63-.58,1.18-1.25,1.62-1.99,2.81-3.62,5.13-7.59,6.93-11.85,1.04-2.46,1.89-4.96,2.54-7.52.38-.93.61-1.93.67-2.97,0-.16.02-.32.02-.48,0-2.84-1.31-5.38-3.36-7.04ZM239.22,19.08v-.02c1.03.42,2.17.65,3.36.65h.31c.65,0,1.28-.07,1.89-.2.37-.08.73-.18,1.1-.3,2.9-.76,5.91-1.15,8.99-1.15,9.42,0,18.27,3.67,24.93,10.32,4.09,4.09,7.06,9.01,8.73,14.38.05.22.12.42.19.63.79,2.33,2.51,4.23,4.71,5.26,1.09.52,2.31.82,3.59.86h.25c.65,0,1.28-.07,1.89-.2.37-.08.73-.18,1.1-.3.37-.13.73-.28,1.07-.45.7-.35,1.35-.8,1.94-1.31.3-.27.59-.55.86-.86.83-.95,1.46-2.08,1.82-3.33.27-.86.42-1.77.42-2.72,0-.47-.03-.93-.1-1.37-.14-.88-.4-1.73-.77-2.51-.44-1.31-.93-2.62-1.47-3.91-2.69-6.36-6.53-12.05-11.42-16.95s-10.6-8.74-16.95-11.42c-6.58-2.78-13.57-4.19-20.76-4.19-4.64,0-9.17.59-13.58,1.75-.84.12-1.64.35-2.39.69-3.16,1.41-5.36,4.57-5.36,8.26,0,.5.04,1,.12,1.48.52,3.16,2.67,5.76,5.55,6.91Z"/>
      <path d="M63.41,127.28v76.45h-12.65c-.07-.09-.13-.19-.2-.28-12.17-16.97-24.42-34.04-36.67-51.11-.27.14-.54.27-.82.4v51.31H0v-77.14h12.11c12.49,17.65,24.96,35.27,37.44,52.88.22-.1.44-.19.66-.29v-52.23h13.2Z"/>
      <path d="M172.97,72.75c4.91,3.28,9.65,6.44,14.39,9.6-5.79,15.94-32.1,28.35-53.36,25.18-23.63-3.53-42.54-24.9-44.13-48.94-1.75-26.39,16.56-48.95,38.31-54.27,28.09-6.86,47.62,6.05,60.02,23.66-5.14,3.06-10.26,6.11-15.38,9.15-13.54-22.34-41.72-20.67-54.47-7.58-16.8,17.26-12.32,41.19,2.09,53.12,15.49,12.82,40.49,10.53,52.53-9.93Z"/>
      <path d="M181.61,203.78h-13.47v-64.23h-22.65v-12.24h58.51v12.28h-22.38v64.18Z"/>
      <path d="M265.13,162.54c-8.4-11.78-16.65-23.37-25.15-35.29h16.29c5.84,8.41,11.76,16.92,17.96,25.85,6.05-8.7,11.96-17.19,18-25.86h16.36c-8.33,11.96-16.46,23.62-24.6,35.3h-18.85Z"/>
      <path d="M240.61,203.94c3.01-4.4,5.73-8.39,8.47-12.37,4.81-7.01,9.67-13.98,14.4-21.03.85-1.26,1.82-1.92,3.24-1.92,5.27,0,10.54,0,15.81.12.7.02,1.63.58,2.05,1.17,7.73,10.87,15.41,21.79,23.09,32.7.23.33.39.71.68,1.23h-16.07c-5.91-8.41-11.82-16.82-17.9-25.47-5.9,8.77-11.56,17.18-17.21,25.58h-16.57Z"/>
      <path d="M229.07,203.74h-12.98v-76.42h12.98v76.42Z"/>
      <path d="M.47,106.29v-16.36h73.87v16.36H.47Z"/>
      <path d="M74.26,4.12v16.3H.48V4.12h73.78Z"/>
      <path d="M77.41,203.69v-12.18h54.77v12.18h-54.77Z"/>
      <path d="M132.54,127.33v12h-55.12v-12h55.12Z"/>
      <path d="M77.26,171.1v-12.02h46.75v12.02h-46.75Z"/>
      <path d="M62.55,46.78v16.16H.7v-16.16h61.85Z"/>
    </g>
  </g>
</svg>