<?xml version="1.0" encoding="UTF-8"?>
<svg id="Layer_2" data-name="Layer 2" xmlns="http://www.w3.org/2000/svg" viewBox="0 0 85.7 85.7">
  <defs>
    <style>
      .cls-1 {
        fill: #ffc53c;
      }

      .cls-2 {
        fill: #37270a;
      }
    </style>
  </defs>
  <g id="Content">
    <g>
      <circle class="cls-1" cx="42.85" cy="42.85" r="42.85"/>
      <path class="cls-2" d="M42.85,17.22c-14.16,0-25.63,11.48-25.63,25.63s11.48,25.63,25.63,25.63,25.63-11.48,25.63-25.63-11.48-25.63-25.63-25.63ZM52.54,52.47c-1.78-.85-3.79.61-3.53,2.57l1.5,11.36-5.47-10.07c-.94-1.73-3.43-1.73-4.37,0l-5.47,10.07,1.5-11.36c.26-1.95-1.75-3.42-3.53-2.57l-10.34,4.93,7.89-8.31c1.36-1.43.59-3.79-1.35-4.15l-11.26-2.09,11.26-2.09c1.94-.36,2.71-2.72,1.35-4.15l-7.89-8.31,10.34,4.93c1.78.85,3.79-.61,3.53-2.57l-1.5-11.36,5.47,10.07c.94,1.73,3.43,1.73,4.37,0l5.47-10.07-1.5,11.36c-.26,1.95,1.75,3.42,3.53,2.57l10.34-4.93-7.88,8.31c-1.36,1.43-.59,3.8,1.35,4.15l11.26,2.09-11.26,2.09c-1.94.36-2.71,2.72-1.35,4.15l7.88,8.31-10.34-4.93Z"/>
    </g>
  </g>
</svg>