<?xml version="1.0" encoding="UTF-8"?>
<svg id="Layer_2" data-name="Layer 2" xmlns="http://www.w3.org/2000/svg" viewBox="0 0 85.7 85.7">
  <defs>
    <style>
      .cls-1 {
        fill: #0b57e5;
      }

      .cls-2 {
        fill: #ceebf8;
      }
    </style>
  </defs>
  <g id="Content">
    <g>
      <circle class="cls-1" cx="42.85" cy="42.85" r="42.85"/>
      <g>
        <path class="cls-2" d="M62.09,60.22c-1.49,0-2.27.71-2.9,1.29-.55.5-.95.87-1.82.87s-1.27-.36-1.82-.87c-.63-.57-1.41-1.29-2.9-1.29s-2.27.71-2.9,1.29c-.55.5-.95.87-1.82.87s-1.27-.36-1.82-.87c-.63-.57-1.41-1.29-2.9-1.29s-2.27.71-2.9,1.29c-.55.5-.95.87-1.82.87s-1.27-.36-1.82-.87c-.63-.57-1.41-1.29-2.9-1.29s-2.27.71-2.9,1.29c-.55.5-.95.87-1.82.87s-1.27-.36-1.82-.87c-.63-.57-1.41-1.29-2.9-1.29-.44,0-.8.36-.8.8s.36.8.8.8c.87,0,1.27.36,1.82.87.63.57,1.41,1.29,2.9,1.29s2.27-.71,2.9-1.29c.55-.5.95-.87,1.82-.87s1.27.36,1.82.87c.63.57,1.41,1.29,2.9,1.29s2.27-.71,2.9-1.29c.55-.5.95-.87,1.82-.87s1.27.36,1.82.87c.63.57,1.41,1.29,2.9,1.29s2.27-.71,2.9-1.29c.55-.5.95-.87,1.82-.87s1.27.36,1.82.87c.63.57,1.41,1.29,2.9,1.29s2.27-.71,2.9-1.29c.55-.5.95-.87,1.82-.87.44,0,.8-.36.8-.8s-.36-.8-.8-.8Z"/>
        <path class="cls-2" d="M62.09,56.61c-1.49,0-2.27.71-2.9,1.29-.55.5-.95.87-1.82.87s-1.27-.36-1.82-.87c-.63-.57-1.41-1.29-2.9-1.29s-2.27.71-2.9,1.29c-.55.5-.95.87-1.82.87s-1.27-.36-1.82-.87c-.63-.57-1.41-1.29-2.9-1.29s-2.27.71-2.9,1.29c-.55.5-.95.87-1.82.87s-1.27-.36-1.82-.87c-.63-.57-1.41-1.29-2.9-1.29s-2.27.71-2.9,1.29c-.55.5-.95.87-1.82.87s-1.27-.36-1.82-.87c-.63-.57-1.41-1.29-2.9-1.29-.44,0-.8.36-.8.8s.36.8.8.8c.87,0,1.27.36,1.82.87.63.57,1.41,1.29,2.9,1.29s2.27-.71,2.9-1.29c.55-.5.95-.87,1.82-.87s1.27.36,1.82.87c.63.57,1.41,1.29,2.9,1.29s2.27-.71,2.9-1.29c.55-.5.95-.87,1.82-.87s1.27.36,1.82.87c.63.57,1.41,1.29,2.9,1.29s2.27-.71,2.9-1.29c.55-.5.95-.87,1.82-.87s1.27.36,1.82.87c.63.57,1.41,1.29,2.9,1.29s2.27-.71,2.9-1.29c.55-.5.95-.87,1.82-.87.44,0,.8-.36.8-.8s-.36-.8-.8-.8Z"/>
        <path class="cls-2" d="M62.09,53c-1.49,0-2.27.71-2.9,1.29-.55.5-.95.87-1.82.87s-1.27-.36-1.82-.87c-.63-.57-1.41-1.29-2.9-1.29s-2.27.71-2.9,1.29c-.55.5-.95.87-1.82.87s-1.27-.36-1.82-.87c-.63-.57-1.41-1.29-2.9-1.29s-2.27.71-2.9,1.29c-.55.5-.95.87-1.82.87s-1.27-.36-1.82-.87c-.63-.57-1.41-1.29-2.9-1.29s-2.27.71-2.9,1.29c-.55.5-.95.87-1.82.87s-1.27-.36-1.82-.87c-.63-.57-1.41-1.29-2.9-1.29-.44,0-.8.36-.8.8s.36.8.8.8c.87,0,1.27.36,1.82.87.63.57,1.41,1.29,2.9,1.29s2.27-.71,2.9-1.29c.55-.5.95-.87,1.82-.87s1.27.36,1.82.87c.63.57,1.41,1.29,2.9,1.29s2.27-.71,2.9-1.29c.55-.5.95-.87,1.82-.87s1.27.36,1.82.87c.63.57,1.41,1.29,2.9,1.29s2.27-.71,2.9-1.29c.55-.5.95-.87,1.82-.87s1.27.36,1.82.87c.63.57,1.41,1.29,2.9,1.29s2.27-.71,2.9-1.29c.55-.5.95-.87,1.82-.87.44,0,.8-.36.8-.8s-.36-.8-.8-.8Z"/>
        <path class="cls-2" d="M53.85,35.23c-1.24,0-2.44.14-3.56.41.18-.93.27-1.91.27-2.92,0-6.07-3.41-10.99-7.62-10.99s-7.62,4.92-7.62,10.99c0,1.21.14,2.38.39,3.47-1.2-.31-2.5-.48-3.86-.48-6.07,0-10.99,3.41-10.99,7.62s4.92,7.62,10.99,7.62,10.69-3.2,10.98-7.23c.03,0,.06,0,.09,0,.62,3.8,5.27,6.75,10.92,6.75,6.07,0,10.99-3.41,10.99-7.62s-4.92-7.62-10.99-7.62Z"/>
      </g>
    </g>
  </g>
</svg>