<?xml version="1.0" encoding="UTF-8"?>
<svg id="Layer_2" data-name="Layer 2" xmlns="http://www.w3.org/2000/svg" viewBox="0 0 77.04 77.02">
  <defs>
    <style>
      .cls-1 {
        fill: #00256c;
      }
    </style>
  </defs>
  <g id="Content">
    <g>
      <path class="cls-1" d="M77.01,36.1c-.23-.87-.2-1.86-.32-2.76C74.52,16.77,61.32,3.2,44.85.49l-3.94-.49h-4.66C3.41,1.83-12.17,42.21,11.18,65.68c23.44,23.57,63.91,8.03,65.83-24.92.09-1.54-.07-3.12,0-4.66ZM66.24,58.05c-14.18,20.04-44.5,18.89-56.94-2.29C-3.88,33.33,12.12,4.91,38.02,4.55c27.52-.38,44.2,30.91,28.21,53.5Z"/>
      <path class="cls-1" d="M35.91,7.11C15.39,8.55,2.02,29.78,8.86,49.12c7.27,20.54,33.62,27.78,50.16,13.31,22.96-20.09,7.35-57.44-23.12-55.31ZM37.33,10.03c.29-1.28,2.05-1.29,2.34,0,.13.59.12,3.22.04,3.89-.03.25-.17.6-.35.77-.68.62-1.9.28-2.05-.64-.1-.6-.1-3.47.02-4.02ZM14.17,39.68c-.53.12-3.76.12-4.3,0-1.15-.26-1.15-2.08,0-2.34.54-.12,3.76-.12,4.3,0,1.09.24,1.08,2.1,0,2.34ZM39.67,66.98c-.31,1.36-2.2,1.3-2.38-.27-.08-.69-.1-3.27.04-3.88.08-.38.45-.75.83-.83.55-.12,1.2.06,1.43.61.18.42.2,3.84.08,4.37ZM51.18,52.83l-17.72-9.35-9.32-17.75c-.25-.65.09-1.48.79-1.63.77-.17,2.43.86,3.2,1.25,5.2,2.61,10.29,5.46,15.42,8.19l9.28,17.65c.48,1.14-.51,2.13-1.65,1.65ZM62.95,37.31c.6-.1,3.46-.1,4.02.02,1.28.29,1.29,2.05,0,2.34-.59.13-3.22.12-3.89.04-.25-.03-.6-.17-.77-.35-.62-.68-.28-1.9.64-2.05Z"/>
      <path class="cls-1" d="M28.27,28.28l6.92,13.31.9.6,12.64,6.54-7.06-13.47-13.39-6.99ZM38.71,40.01c-1.98.23-2.32-2.63-.55-2.97,2.15-.41,2.49,2.75.55,2.97Z"/>
    </g>
  </g>
</svg>